<?xml version="1.0" encoding="utf-8"?><svg enable-background="new 0 0 71 70" viewBox="0 0 71 70" xmlns="http://www.w3.org/2000/svg"><g fill="#78ce3e"><circle clip-rule="evenodd" cx="35.2" cy="34.7" fill-rule="evenodd" opacity=".15" r="34.7"/><g transform="translate(17.238418 19.738418)"><path d="m30.1 16.2h-2.7c.3.8.4 1.6.4 2.4v10.3c0 .4-.1.7-.2 1h4.5c1.7 0 3.1-1.4 3.1-3.1v-5.6c0-2.7-2.3-5-5.1-5z"/><path d="m7.4 18.6c0-.9.2-1.7.4-2.4h-2.7c-2.8 0-5.1 2.3-5.1 5.1v5.6c0 1.7 1.4 3.1 3.1 3.1h4.5c-.1-.3-.2-.7-.2-1z"/><path d="m20.7 13.5h-6.2c-2.8 0-5.1 2.3-5.1 5.1v10.3c0 .6.5 1 1 1h14.4c.6 0 1-.5 1-1v-10.3c0-2.8-2.3-5.1-5.1-5.1z"/><path d="m17.6.1c-3.4 0-6.1 2.7-6.1 6.1 0 2.3 1.3 4.3 3.1 5.3.9.5 1.9.8 3 .8s2.1-.3 3-.8c1.9-1 3.1-3 3.1-5.3 0-3.4-2.7-6.1-6.1-6.1z"/><path d="m6.9 5.8c-2.5 0-4.6 2.1-4.6 4.6s2.1 4.6 4.6 4.6c.6 0 1.2-.1 1.8-.4 1-.4 1.7-1.1 2.2-2.1.3-.6.5-1.4.5-2.1 0-2.6-2-4.6-4.5-4.6z"/><path d="m28.4 5.8c-2.5 0-4.6 2.1-4.6 4.6 0 .8.2 1.5.5 2.1.5.9 1.3 1.6 2.2 2.1.6.2 1.2.4 1.8.4 2.5 0 4.6-2.1 4.6-4.6s-2-4.6-4.5-4.6z"/></g></g></svg>